<?xml version="1.0" encoding="UTF-8"?>
<svg width="600px" height="450px" viewBox="0 0 600 450" version="1.1" xmlns="http://www.w3.org/2000/svg" xmlns:xlink="http://www.w3.org/1999/xlink">
    <!-- Generator: Sketch 52.4 (67378) - http://www.bohemiancoding.com/sketch -->
    <title>Artboard</title>
    <desc>Created with Sketch.</desc>
    <g id="Artboard" stroke="none" stroke-width="1" fill="none" fill-rule="evenodd">
        <rect fill="#FFFFFF" x="0" y="0" width="600" height="450"></rect>
        <g id="rm" transform="translate(135.000000, 61.000000)">
            <path d="M167.316194,231.809243 C162.438731,226.153612 160,221.771059 160,218.661584 C160,213.997372 165.267052,204.550397 165.267052,201.319894 C165.267052,198.089391 165.267052,192.864696 165.267052,190.723443 C165.267052,188.582188 184.036879,163.102368 209.124228,156.36228 C225.89582,155.998415 238.345006,154.199183 255.914221,164.053626 C268.745459,173.908068 278.213978,195.588203 278.213978,195.588203 C278.213978,195.588203 280.527523,217.303938 280.527523,217.303938 C280.527523,217.303938 278.213978,226.916969 278.213978,230.142857 C278.213978,233.368745 283.052253,239.523753 281.789888,242.607097 C280.527523,245.69044 276.019978,251.194311 271.65152,252.553302 C269.519103,255.748844 254.427464,269.763066 251.894089,269.763066 C253.616646,270.820662 263.923827,286.993715 261.43264,293.044973 C258.941453,299.096231 196.387063,329.699015 187.6922,327.925961 C178.997337,326.152909 179.723949,300.558527 181.547489,294.383151 C182.763182,290.266233 186.326602,282.749687 192.23775,271.833512 C200.924009,276.398308 205.909986,277.822512 207.195683,276.106126 C209.124228,273.531545 198.984038,271.788512 194.076343,269.763066 C189.168648,267.73762 176.715549,254.696665 175.085328,250.876497 C174.730068,251.823209 173.777901,254.230106 168.994178,252.553302 C164.210455,250.876497 161.680842,243.395562 161.680842,236.769209 C163.226966,235.861777 165.105416,234.208455 167.316194,231.809243 Z M212.165815,204.141395 C211.426497,204.916721 210.295323,214.746963 181.206192,214.746963 C180.537968,222.538565 185.532424,236.800102 203.788041,236.800102 C221.222249,230.620632 223.875099,212.523363 212.165815,204.141395 Z M234.012645,204.693235 C222.30336,213.075204 225.984158,229.810218 242.418346,234.830346 C262.978067,234.486872 266.259689,222.538565 265.591466,214.746963 C236.502336,214.746963 234.751962,205.468562 234.012645,204.693235 Z" id="Combined-Shape" fill="#000000" fill-rule="nonzero"></path>
            <ellipse id="Oval" stroke="#000000" stroke-width="16" cx="165.5" cy="164" rx="165.5" ry="164"></ellipse>
            <path d="M92.1430085,203.721063 C88.052385,206.214788 83.3292224,208.718807 82.1904367,208.718807 C81.4312467,208.718807 81.4312467,204.806186 82.1904367,196.980944 C70.7825752,196.980944 65.078644,196.980944 65.078644,196.980944 C65.078644,196.980944 69.751447,181.72893 69.751447,180.69283 C69.751447,179.65673 50.301123,172.412057 50.301123,172.412057 C50.301123,172.412057 55.2269634,167.505294 65.078644,157.691768 C59.1021113,148.769248 50.7425634,143.884869 40,143.038629 C40.1796863,141.291363 47.5087284,135.7421 61.9871263,126.390841 C57.9052245,114.168065 51.6435476,105.901402 43.2020958,101.59085 C45.796386,100.598354 56.7426078,99.5491389 76.0407615,98.4432053 C74.680068,83.6850831 71.9976222,75.2101966 67.993424,73.0185457 C70.9522888,72.0897619 89.9161904,77.7368429 93.4332277,81.5046794 C94.4543369,78.6006711 102.089592,62.7964202 100.886892,52.0002204 C102.650918,51.9182927 120.527185,74.7007208 121.851126,74.7007208 C123.175067,74.7007208 140.23934,56.6791869 149.406024,54.3397037 C149.53799,59.7149447 148.59643,84.8696327 152.704993,86.8746289 C155.970598,86.1664745 164.563609,83.3082017 178.484027,78.2998105 C168.518298,94.9393625 163.795608,103.70112 164.315956,104.585083 C165.096478,105.911029 189.59541,107.578772 189.941306,109.065533 C190.287203,110.552293 171.368269,127.448697 169.904812,128.607559 C168.441354,129.766421 188.472208,136.660762 189.941306,137.687275 C191.410404,138.713788 164.825625,150.438797 163.507013,152.264699 C162.188402,154.090601 176.336896,163.113125 178.484027,163.906637 C178.617244,165.566813 165.157405,171.215344 162.371012,172.412057 C162.659959,174.263333 167.10655,183.200274 165.711253,184.596722 C164.315956,185.99317 155.594144,185.241332 154.816457,187.071582 C154.03877,188.901834 160.20424,195.739554 160.20424,196.360249 C160.20424,196.980944 153.854063,200.104299 149.406024,200.974612 C147.401628,203.541961 141.516492,210.242534 133.594191,213.187851 C133.524419,214.703924 133.524419,216.502721 133.594191,218.584244 C149.144514,223.612749 158.384939,226.33255 161.315464,226.743651 C162.102603,227.902222 170.966988,260.026951 187.908619,323.117836 C131.746076,327.779684 89.7722454,313.964667 61.9871263,281.672785 C64.0390165,267.228156 74.4441925,230.504325 76.0407615,228.623988 C77.6373305,226.743651 105.421859,219.450092 107.06968,216.986539 C108.717499,214.522985 108.101947,212.340129 107.06968,212.340129 C106.037411,212.340129 97.0366212,208.056341 92.1430085,203.721063 Z M86.8098806,142.478847 C87.0024311,143.829795 95.6622193,139.146625 100.246152,140.257366 C104.830085,141.368106 112.030719,143.589587 112.860225,142.478847 C113.543649,141.563717 117.358869,130.620207 108.685279,124.590754 C106.831283,123.301947 104.378032,122.239309 101.258895,121.543833 C88.02293,122.220946 83.6384349,131.310613 86.8098806,142.478847 Z M127.429797,127.827288 C125.119976,128.130725 118.861919,131.91951 125.00858,139.533292 C132.460489,140.146305 142.806935,139.694857 147.076745,142.426935 C150.566648,141.700763 151.831237,136.921533 150.921514,135.127112 C150.011792,133.332691 138.220992,125.946175 127.429797,127.827288 Z M139.120206,225.307882 L139.120206,225.822238 C151.25263,250.790372 157.318843,263.597662 157.318843,264.244107 C157.318843,265.213775 148.178027,273.53637 146.252965,275.069904 C144.327904,276.603439 145.224398,278.552858 146.252965,278.552858 C147.281533,278.552858 159.387926,265.264086 159.387926,263.27444 C159.387926,261.948009 153.113636,249.29249 140.565056,225.307882 L139.120206,225.307882 Z M150.078524,283.604759 C151.102286,283.604759 151.932208,282.785268 151.932208,281.774375 C151.932208,280.763481 151.102286,279.94399 150.078524,279.94399 C149.054763,279.94399 148.22484,280.763481 148.22484,281.774375 C148.22484,282.785268 149.054763,283.604759 150.078524,283.604759 Z M135.165429,227.301874 C134.183656,227.212019 133.692769,227.471462 133.692769,228.080199 C133.692769,228.993305 138.778454,268.47906 138.145413,269.920743 C139.363077,270.814906 139.466426,269.930626 140.050941,268.691095 C140.440618,267.86474 138.812114,254.068334 135.165429,227.301874 Z M107.519855,230.890409 C106.184453,230.851783 105.516751,231.556804 105.516751,233.005473 C105.516751,235.178478 103.966456,264.331335 104.596167,264.331335 C105.225878,264.331335 108.265725,263.272096 107.299467,258.970209 C107.07481,255.564275 107.148273,246.204342 107.519855,230.890409 Z M93.6239346,270.332414 C92.5464369,270.585077 92.277063,271.126339 92.8158115,271.956203 C93.6239346,273.200998 98.4768415,276.396862 98.4768415,277.122223 C98.4768415,277.847583 97.2128065,279.419779 97.844824,279.90228 C98.4768415,280.38478 102.557506,279.519422 101.71492,277.769505 C101.153195,276.602894 98.4562,274.123864 93.6239346,270.332414 Z M81.3464763,179.052391 C81.042019,178.680438 80.7617739,179.290046 80.5057424,180.881214 C80.1216944,183.267967 86.4931654,203.15451 90.0775212,201.953167 C91.2750005,199.689217 84.5460356,192.222442 83.5670963,186.028364 C82.5881563,179.834286 82.5903155,179.052391 82.1153561,179.052391 C81.7987161,179.052391 81.5424223,179.052391 81.3464763,179.052391 Z M79.2879289,170.335483 C78.8575805,170.335483 78.6726546,171.332078 78.6726546,171.922134 C78.6726546,172.512189 79.7295695,173.347869 79.7295695,172.635001 C79.7295695,171.922134 79.7182766,170.335483 79.2879289,170.335483 Z" id="Combined-Shape" fill="#000000" fill-rule="nonzero"></path>
        </g>
    </g>
</svg>